<svg xmlns="http://www.w3.org/2000/svg" viewBox="0 0 100 100">
<path fill="#000" d="M76.4,17.2c3.3,0,6,2.7,6,6s-2.7,6-6,6c-3.3,0-6-2.7-6-6S73.1,17.2,76.4,17.2 M49.8,66.4
c-9.2,0-16.6-7.4-16.6-16.6s7.4-16.6,16.6-16.6s16.6,7.4,16.6,16.6S59,66.4,49.8,66.4 M49.8,24.2c-14.1,0-25.6,11.4-25.6,25.6
s11.4,25.6,25.6,25.6s25.6-11.4,25.6-25.6S63.9,24.2,49.8,24.2 M49.8,0C36.3,0,34.6,0,29.3,0.3C24,0.5,20.4,1.4,17.2,2.6
c-3.3,1.3-6.1,3-8.8,5.8c-2.8,2.8-4.5,5.5-5.8,8.8C1.4,20.4,0.5,24,0.3,29.3C0,34.6,0,36.3,0,49.8S0,65,0.3,70.4
c0.2,5.3,1.1,8.9,2.3,12.1c1.3,3.3,3,6.1,5.8,8.8c2.8,2.8,5.6,4.5,8.8,5.8c3.2,1.2,6.8,2.1,12.1,2.3c5.3,0.2,7,0.3,20.5,0.3
c13.5,0,15.2,0,20.5-0.3c5.3-0.2,8.9-1.1,12.1-2.3c3.3-1.3,6.1-3,8.8-5.8c2.8-2.8,4.5-5.6,5.8-8.8c1.2-3.2,2.1-6.8,2.3-12.1
c0.2-5.3,0.3-7,0.3-20.5s0-15.2-0.3-20.5c-0.2-5.3-1.1-8.9-2.3-12.1c-1.3-3.3-3-6.1-5.8-8.8c-2.8-2.8-5.6-4.5-8.8-5.8
c-3.2-1.2-6.8-2.1-12.1-2.3C65,0,63.3,0,49.8,0 M49.8,9c13.3,0,14.9,0,20.1,0.3c4.9,0.2,7.5,1.1,9.3,1.7c2.3,0.9,4,2,5.7,3.7
c1.8,1.8,2.8,3.4,3.7,5.7c0.7,1.8,1.5,4.4,1.7,9.3c0.2,5.3,0.3,6.8,0.3,20.1s0,14.9-0.3,20.1c-0.2,4.9-1.1,7.5-1.7,9.3
c-0.9,2.3-2,4-3.7,5.7c-1.8,1.8-3.4,2.8-5.7,3.7c-1.8,0.7-4.4,1.5-9.3,1.7c-5.3,0.2-6.8,0.3-20.1,0.3s-14.9,0-20.1-0.3
c-4.9-0.2-7.5-1.1-9.3-1.7c-2.3-0.9-4-2-5.7-3.7c-1.8-1.8-2.8-3.4-3.7-5.7c-0.7-1.8-1.5-4.4-1.7-9.3C9,64.7,9,63.1,9,49.8
s0-14.9,0.3-20.1c0.2-4.9,1.1-7.5,1.7-9.3c0.9-2.3,2-4,3.7-5.7s3.4-2.8,5.7-3.7c1.8-0.7,4.4-1.5,9.3-1.7C34.9,9,36.5,9,49.8,9"/>
</svg>