<svg xmlns="http://www.w3.org/2000/svg" viewBox="0 0 100 100">
  <path fill="#000" d="m56.666 4.306 12.191-.22c.82 2.921 2.4 7.042 5.6 11.13 7.018 8.962 16.81 11.366 20.03 12.012L94.39 43.74a39.987 39.987 0 0 1-9.535-1.277 40.315 40.315 0 0 1-13.368-6.291c.012 1.691.027 4.21.029 7.27.002 4.077-.018 6.392-.029 8.85-.067 15.193.31 18.13-1.026 24.137-.43 1.933-.645 2.9-1.136 4.27-2.566 7.154-8.159 12.88-13.86 15.924-11.444 6.112-27.63 3.718-35.386-5.504-5.76-6.848-7.008-17.626-7.13-20.365-.015-.346-.023-.69-.023-.69-.065-2.425.1-6.314 1.573-11.009 1.152-3.677 4.944-11.36 13.466-16.022 7.52-4.114 14.703-3.636 17.375-3.323l-.196 16.71c-.339-.086-8.5-2.019-13.86 3.54-5.1 5.287-4.471 14.044-.491 18.479 1.929 2.149 4.36 2.954 6.019 3.519.746.254 6.794 2.242 11.893-.197 7.227-3.455 8.12-11.569 8.159-11.992l-.197-65.464"/>
</svg>
