<svg version="1.1" id="Layer_1" xmlns="http://www.w3.org/2000/svg" xmlns:xlink="http://www.w3.org/1999/xlink" x="0px" y="0px"
	 width="100%" viewBox="0 0 1024 1024" enable-background="new 0 0 1024 1024" xml:space="preserve">
<path fill="#000000" opacity="1.000000" stroke="none" 
	d="
M351.515381,180.447601 
	C355.606750,176.726318 360.291382,174.984238 365.209137,173.936142 
	C368.166748,173.305817 369.726959,171.819748 370.692230,168.949631 
	C375.522766,154.586609 386.677124,145.936142 401.667206,145.934937 
	C415.322632,145.933853 427.300018,151.583099 433.956451,166.882599 
	C436.008759,171.599701 438.257263,174.288681 443.592377,175.281693 
	C451.226715,176.702621 457.228577,181.380402 461.467041,187.933899 
	C463.561676,191.172638 465.615234,192.650299 469.897552,191.773270 
	C481.452515,189.406738 493.096283,187.399368 504.894531,186.512115 
	C507.748932,186.297455 509.517761,184.465698 511.224609,182.192245 
	C519.018982,171.810410 528.328003,163.096649 540.134216,157.369797 
	C550.890625,152.152130 555.535706,153.469330 561.644714,163.706802 
	C566.539734,171.909866 569.973145,180.762161 571.844299,190.128372 
	C572.538391,193.602341 574.257874,194.956604 577.610413,195.812531 
	C621.692444,207.066940 661.624329,226.555878 696.175964,256.433685 
	C734.073425,289.204865 761.145874,329.341064 777.349854,376.765717 
	C784.641113,398.105469 788.955322,419.988251 790.469971,442.551727 
	C794.406616,501.194794 779.406128,554.776001 747.217346,603.472839 
	C724.869934,637.281067 695.350159,663.587463 659.237305,682.354980 
	C651.239197,686.511536 643.316284,688.035706 634.262939,686.524048 
	C617.469299,683.720093 601.459534,679.196838 587.342590,669.340027 
	C568.470398,656.163025 561.131836,637.640625 563.059021,615.225342 
	C564.166138,602.349609 567.443298,590.037048 574.664246,578.983215 
	C579.798218,571.124084 586.940674,567.921082 596.038696,570.314148 
	C606.835144,573.153748 616.628357,578.894897 627.588562,581.318970 
	C635.243103,583.011963 642.855408,584.770813 650.750854,582.865601 
	C659.005371,580.873840 663.788269,575.726562 663.526917,567.371948 
	C663.175659,556.146301 667.429138,547.331421 675.663147,540.122131 
	C680.220337,536.132019 682.804504,531.631042 683.077515,525.098938 
	C683.602417,512.541687 689.775696,507.059875 702.818604,505.707397 
	C705.628601,505.415985 708.455627,505.108490 711.212036,504.516205 
	C718.924072,502.859100 721.148987,498.131989 717.013611,491.500916 
	C710.780457,481.505798 706.011169,470.966980 703.758545,459.368042 
	C700.444031,442.301453 702.177429,425.579620 707.402222,409.137848 
	C711.341797,396.740326 714.632507,384.227417 715.333557,371.151245 
	C715.714966,364.037750 715.278564,357.057037 713.283569,349.967896 
	C710.925476,351.233063 710.650757,353.170380 709.993408,354.796356 
	C694.922668,392.070709 666.685364,414.540466 629.238403,426.636017 
	C605.628418,434.262177 581.554688,435.064117 557.159363,431.536621 
	C542.131226,429.363617 527.057434,427.465942 512.375610,433.506897 
	C508.573578,435.071259 504.562653,436.323212 501.680054,439.581451 
	C502.512665,442.103790 504.819824,442.621490 506.601318,443.677917 
	C525.948914,455.151001 540.959229,470.434418 548.890564,491.884552 
	C550.035583,494.981018 550.786499,498.261078 551.372864,501.518585 
	C552.681030,508.785492 550.943909,511.892914 544.016052,514.659729 
	C535.916626,517.894470 527.392395,519.511169 518.760864,520.257568 
	C513.839783,520.683105 511.201111,522.159607 510.472748,527.650085 
	C506.317322,558.973450 490.859772,584.976501 471.076202,608.711487 
	C448.103333,636.272583 419.575531,656.753784 387.838715,673.069702 
	C380.203278,676.995117 373.521729,677.104431 365.958160,672.048645 
	C318.333618,640.214233 284.778595,597.596375 266.069305,543.400879 
	C255.220978,511.976379 251.115356,479.634979 253.854492,446.529877 
	C255.947418,421.235046 262.019684,396.993134 274.933197,374.825653 
	C275.769165,373.390533 276.785156,372.061432 277.678223,370.658112 
	C278.563751,369.266693 279.399689,367.843719 279.681885,365.663635 
	C277.077057,367.450714 274.406067,369.149323 271.878998,371.040283 
	C261.368103,378.905365 250.429092,385.611389 236.813461,386.680115 
	C227.587082,387.404358 218.891617,385.846069 210.662003,381.852631 
	C203.081268,378.174103 202.660065,372.893219 209.450058,367.824646 
	C218.702927,360.917603 229.247299,356.902252 240.498642,354.753082 
	C250.185074,352.902832 260.000885,352.558380 269.847412,352.859375 
	C279.251312,353.146912 287.874664,350.794403 296.579041,344.701996 
	C286.780304,343.146149 277.958740,342.017365 269.255707,340.290985 
	C259.583771,338.372437 250.109253,337.571960 240.130188,338.751648 
	C219.720139,341.164398 197.861328,328.720123 188.744370,310.738831 
	C187.845337,308.965668 187.091675,307.094208 186.491638,305.198395 
	C184.218262,298.015839 186.577805,294.784241 194.106888,294.643524 
	C213.209091,294.286469 228.691635,302.637665 240.110229,316.928894 
	C248.348785,327.240051 258.562805,330.835602 270.498047,332.441406 
	C270.799438,332.481934 271.128906,332.313934 272.158905,332.083618 
	C267.670685,327.060150 262.822632,322.835693 258.871399,317.805603 
	C247.713440,303.600952 240.915237,287.901184 241.678909,269.479340 
	C241.993134,261.899292 243.718811,254.643661 246.995056,247.818939 
	C250.510117,240.496719 256.275909,239.491135 262.156769,245.250519 
	C270.752594,253.668808 274.487427,264.410095 276.332703,275.993774 
	C277.660767,284.330841 276.360016,292.582428 275.664886,300.861725 
	C274.766022,311.566895 275.421936,321.897156 283.297882,330.345520 
	C290.462097,338.030426 304.093719,339.371246 313.383972,332.981049 
	C310.235138,329.763458 306.896057,326.766602 304.434387,323.032074 
	C298.221497,313.606628 295.337585,303.179779 294.629852,291.974457 
	C293.595520,275.597931 293.783783,259.344116 298.671051,243.498077 
	C300.040375,239.058350 301.954529,234.787994 303.582306,230.426331 
	C306.227325,223.339157 311.697662,220.717346 318.840118,220.680176 
	C326.602417,220.639771 334.366455,220.374588 342.968811,221.605927 
	C337.737885,205.796677 338.781036,191.945847 351.515381,180.447601 
M315.577209,426.981201 
	C332.378082,427.610077 348.333862,424.569244 363.141815,416.266815 
	C383.371796,404.924500 393.272430,386.924957 396.604218,364.662994 
	C397.035248,361.782806 396.679504,359.305023 392.855499,359.046173 
	C391.571350,358.959229 390.317291,358.279297 389.070435,357.814209 
	C379.992615,354.427734 373.073456,345.129974 372.688110,335.824188 
	C372.171387,323.347290 377.157257,314.161804 387.341980,309.863983 
	C390.645752,308.469849 391.927795,306.773010 391.743317,303.209473 
	C389.681183,263.381012 364.345947,241.728256 326.595245,238.188126 
	C323.589691,237.906265 322.128082,239.241043 320.977020,241.898148 
	C316.344635,252.591476 314.114380,263.664886 314.275024,275.357056 
	C314.623016,300.680084 327.748474,318.896912 351.664642,326.721588 
	C354.665192,327.703278 357.662567,328.700104 360.626617,329.784943 
	C361.739655,330.192322 362.744690,330.944244 362.684052,332.319519 
	C362.621185,333.744781 361.482391,334.229004 360.318695,334.501129 
	C357.571075,335.143707 354.817291,335.767700 352.049011,336.312866 
	C328.783020,340.894775 309.823212,352.040710 296.868042,372.395142 
	C289.500397,383.970795 285.693512,396.825348 283.221832,410.163055 
	C281.805084,417.808289 282.411682,419.283234 289.262665,421.993042 
	C297.373352,425.201080 305.878571,426.722046 315.577209,426.981201 
M476.838257,242.649826 
	C475.308533,237.661972 471.788025,236.704849 467.080963,237.504166 
	C460.843079,238.563431 454.648529,239.755920 448.517090,241.335480 
	C419.774719,248.739990 401.327148,271.692230 400.118256,301.242096 
	C399.940033,305.598175 401.466888,307.360291 405.463745,308.660797 
	C416.483856,312.246490 422.848114,320.064819 424.131073,331.616974 
	C425.231537,341.525604 419.191223,351.938354 409.315247,356.761414 
	C405.691833,358.530975 405.088715,360.326233 406.759583,363.665771 
	C410.782745,371.706848 414.332275,380.007263 418.729340,387.834290 
	C428.946533,406.021423 443.395416,418.730042 464.970459,421.299255 
	C481.446136,423.261200 497.080444,419.851746 512.164307,413.364624 
	C519.050293,410.403107 519.891724,408.868439 518.419739,401.496918 
	C516.570557,392.236786 512.729004,383.775269 507.811066,375.776123 
	C494.573822,354.245544 476.800964,338.936310 451.054260,334.744568 
	C445.813629,333.891388 440.490112,333.557312 435.230621,332.803741 
	C433.871796,332.609039 432.000885,332.292603 432.122314,330.241791 
	C432.217224,328.638947 433.733459,328.285583 434.979858,327.848022 
	C438.119720,326.745819 441.279144,325.699158 444.416718,324.590607 
	C463.727509,317.767792 477.841492,305.734833 481.975403,284.866913 
	C484.782806,270.695038 483.040588,256.688324 476.838257,242.649826 
M507.040558,465.469818 
	C496.275726,456.762604 484.231445,450.413422 470.936768,446.661224 
	C461.336487,443.951691 451.486938,442.122559 441.894104,439.389832 
	C428.143921,435.472809 417.898346,427.998138 414.515839,412.837433 
	C412.307495,402.939453 406.964020,394.072754 402.713928,384.860504 
	C402.956299,386.470459 403.526428,387.958527 404.049652,389.462921 
	C411.617859,411.222900 417.341461,433.360596 418.242920,456.545624 
	C419.142242,479.675110 411.453339,500.379913 400.496216,520.155273 
	C390.539307,538.125488 380.975708,556.140381 379.617706,577.314331 
	C378.692383,591.742310 381.200623,605.484741 386.307770,618.842163 
	C387.676300,622.421509 390.323364,624.640747 394.548737,623.337036 
	C399.643616,621.765198 404.673401,620.006714 409.439056,617.573364 
	C411.354156,616.595581 412.441315,615.175964 412.671570,612.917419 
	C415.184692,588.266724 417.460175,563.599731 418.797119,538.849609 
	C419.532990,525.227356 420.925262,511.633759 421.393677,498.005646 
	C421.959656,481.538361 422.669495,465.054016 421.056488,448.569824 
	C420.570404,443.602295 419.148163,438.597931 420.417816,433.387756 
	C423.730072,438.608337 426.700378,443.909485 429.393921,449.347748 
	C448.271851,487.462402 481.599548,507.169556 524.724670,501.685059 
	C530.617737,500.935608 531.342102,499.923126 528.973694,494.410492 
	C524.153259,483.190948 517.144836,473.594727 507.040558,465.469818 
M442.116180,225.679062 
	C448.310150,220.827438 451.034637,212.298004 448.156769,204.610596 
	C442.914856,190.608292 431.857269,191.819595 420.498047,195.174194 
	C419.086548,191.166977 420.095215,187.627304 419.674500,184.186401 
	C418.788300,176.939026 415.652039,170.939850 408.791290,167.983246 
	C402.875397,165.433853 397.276611,167.265182 392.665741,171.554260 
	C387.399139,176.453369 386.740356,182.874786 387.443024,189.552856 
	C388.141754,196.193542 388.284607,195.915283 381.811432,194.087036 
	C375.192169,192.217514 368.479736,191.913254 363.250000,197.580536 
	C358.261353,202.986526 358.359589,209.346252 360.768311,215.813782 
	C362.848511,221.399261 366.697571,225.816971 370.870178,229.932053 
	C376.560150,235.543533 382.708435,240.723724 387.639618,247.050339 
	C390.706360,250.984955 393.377991,255.227554 396.416412,259.604919 
	C399.123199,250.819489 398.451294,242.276672 398.866852,233.823700 
	C399.022278,230.661789 398.362183,228.226501 395.959106,225.821396 
	C391.674652,221.533356 391.429047,214.907333 394.778290,210.747116 
	C398.532104,206.084351 405.321625,205.400131 409.968872,209.216217 
	C414.935425,213.294525 415.093018,220.293396 410.337067,225.567505 
	C406.879333,229.401978 406.120483,238.211288 409.201416,243.489014 
	C418.467651,234.835220 430.197845,230.877686 442.116180,225.679062 
M513.366211,278.927124 
	C517.670898,267.204407 520.710327,255.096634 524.236206,243.137375 
	C525.161621,239.998672 526.892029,237.933960 530.354980,238.926376 
	C533.835449,239.923843 533.469604,242.686523 532.724548,245.463898 
	C528.671204,260.573669 524.471863,275.634613 518.772766,290.234497 
	C518.225525,291.636383 516.879700,293.048462 518.187134,295.214447 
	C519.619934,294.295685 521.059814,293.520569 522.335083,292.532990 
	C555.164368,267.109955 566.658508,223.117889 550.526062,184.731705 
	C546.391907,174.894867 544.580505,174.534164 536.771179,181.805878 
	C516.398010,200.776566 507.247986,224.727127 505.261871,251.986084 
	C504.391327,263.934296 504.781525,275.939240 503.338623,287.858734 
	C502.620239,293.793182 501.204102,299.589203 500.108856,305.480774 
	C505.740143,297.460632 509.580231,288.641174 513.366211,278.927124 
M634.552917,250.196838 
	C593.316284,251.732910 563.091125,272.858429 538.349976,304.506287 
	C548.354858,301.330078 557.365112,296.707886 566.387085,292.161285 
	C573.070801,288.793060 579.535095,284.992126 586.172852,281.529205 
	C589.272583,279.912048 593.140869,276.679108 595.670593,281.355560 
	C598.161377,285.960083 593.391907,287.619354 590.379700,289.353333 
	C578.258545,296.330841 565.826172,302.722015 553.035400,308.391479 
	C546.325867,311.365448 539.561157,314.214935 532.821411,317.120667 
	C545.038757,316.550049 557.183228,317.257904 569.249817,315.783234 
	C603.402710,311.609406 628.569580,294.646484 643.680481,263.498352 
	C649.468506,251.567474 648.351807,249.991516 634.552917,250.196838 
M527.551575,357.122589 
	C520.173157,354.273560 512.794800,351.424530 505.256226,348.513672 
	C505.109680,350.810242 506.694000,351.739868 507.682587,352.952515 
	C513.511902,360.103119 520.421692,366.018097 527.976074,371.326447 
	C554.127747,389.702667 590.795776,389.791809 616.630920,371.330231 
	C622.981323,366.792297 623.054077,364.238281 616.803711,359.676666 
	C598.663330,346.437592 578.183228,339.518005 555.913025,338.478729 
	C541.201599,337.792206 526.432190,338.348785 511.688721,338.348785 
	C517.940613,343.034149 524.551025,346.331970 531.636597,348.663208 
	C540.169006,351.470428 548.715820,354.237915 557.203308,357.175964 
	C559.882812,358.103485 562.979675,359.415161 561.912720,363.074646 
	C560.903748,366.535187 558.061584,366.483215 554.949219,365.679138 
	C545.921997,363.346924 537.054688,360.538269 527.551575,357.122589 
M300.981232,550.760315 
	C301.296539,553.567200 301.441345,556.405823 301.958130,559.175110 
	C303.724731,568.642212 304.682220,569.207886 314.293488,566.966736 
	C325.351074,564.388245 334.854858,558.746155 344.276398,552.602905 
	C351.053955,548.183533 355.250244,543.223938 353.875854,534.758606 
	C353.670258,533.492126 354.240417,532.119934 354.246155,530.795715 
	C354.284027,522.044128 354.265747,513.292358 354.265747,503.487244 
	C352.052704,505.986603 350.381775,507.744263 348.855804,509.619812 
	C342.864563,516.983704 336.761169,524.245972 330.032806,530.958069 
	C328.222565,532.763977 326.286774,533.933533 324.017731,531.685303 
	C321.963837,529.650269 322.392059,527.422546 323.928040,525.382019 
	C325.527191,523.257629 327.351349,521.303284 329.063843,519.263428 
	C337.624176,509.066528 346.778107,499.341583 353.959351,488.047119 
	C355.188385,486.114166 356.531677,484.161774 355.582764,481.690247 
	C355.125183,481.595184 354.772797,481.404816 354.492249,481.480530 
	C341.489288,484.989044 328.596252,488.912811 315.403442,491.704315 
	C313.560699,492.094208 312.096832,493.213928 311.258057,495.023346 
	C303.186920,512.434265 300.171661,530.799805 300.981232,550.760315 
M375.065765,524.568665 
	C397.801910,492.891174 401.539612,456.590149 400.816711,419.190308 
	C397.762817,427.930817 395.249237,436.829254 391.380585,445.265625 
	C385.162537,458.825256 376.346985,470.718140 367.643585,482.683136 
	C365.297394,485.908600 364.213867,489.269318 364.224731,493.317810 
	C364.243896,500.459351 363.620544,507.600037 363.476929,514.745300 
	C363.332550,521.927917 363.445160,529.115601 363.445160,537.104248 
	C368.278992,533.206177 371.250031,528.971313 375.065765,524.568665 
M349.808075,447.325500 
	C337.455139,456.051514 326.315155,465.879242 319.211273,479.798828 
	C321.979980,481.108398 323.852936,480.483246 325.791321,479.951080 
	C337.499756,476.736816 349.219482,473.563446 360.946442,470.417358 
	C364.446808,469.478271 367.187378,467.660370 369.462006,464.739563 
	C377.732544,454.119537 383.989594,442.424347 388.293671,429.721069 
	C389.399384,426.457611 391.245880,423.122803 390.134216,418.242249 
	C377.848358,430.067291 363.873901,438.135284 349.808075,447.325500 
M446.750854,505.719086 
	C442.562042,497.470795 437.799988,489.621887 430.904724,482.119751 
	C430.619659,484.075226 430.358826,485.026306 430.360779,485.976868 
	C430.390198,500.123260 429.659729,514.227783 428.447693,528.322815 
	C428.140198,531.898438 427.137878,535.842163 428.988525,539.153076 
	C434.520050,549.048950 441.171600,558.151978 449.529419,565.906128 
	C449.703339,566.067444 450.157867,565.926392 451.688812,565.926392 
	C457.700989,545.598511 456.460236,525.765869 446.750854,505.719086 
M427.400024,556.712463 
	C424.655090,565.821960 432.228912,584.851318 440.364014,589.226257 
	C442.212524,588.204468 442.881897,586.225403 444.031311,584.630554 
	C447.151611,580.301086 447.444824,576.561523 443.110229,572.429199 
	C438.811096,568.330688 435.368164,563.342102 431.449890,558.830627 
	C430.473114,557.705933 430.036835,555.594788 427.400024,556.712463 
M431.783722,595.688843 
	C429.820862,592.472290 428.754974,588.576965 424.918610,586.058594 
	C423.215637,593.890686 423.137268,601.232117 422.207703,609.857178 
	C425.679169,606.684387 428.246246,604.454773 430.671387,602.080200 
	C432.262085,600.522644 433.415619,598.698792 431.783722,595.688843 
M485.258057,326.557159 
	C494.769958,325.223297 503.769775,322.343353 512.221252,317.800995 
	C504.667267,319.638245 497.174591,321.662781 489.704346,323.766876 
	C487.656311,324.343719 485.675415,325.158966 483.663727,325.864838 
	C483.830353,326.092255 483.970154,326.349457 484.175232,326.534149 
	C484.273254,326.622437 484.495087,326.573212 485.258057,326.557159 
z"/>
<path fill="#000000" opacity="1.000000" stroke="none" 
	d="
M735.255737,735.820496 
	C755.703674,735.344116 770.165710,748.117310 772.022339,767.854126 
	C773.197937,780.351440 763.634338,794.403748 750.128479,800.024231 
	C728.844482,808.881714 704.322388,794.086121 703.328308,771.666565 
	C702.524292,753.533875 714.162170,738.281677 735.255737,735.820496 
M740.649536,754.721008 
	C739.168152,754.620300 737.656372,754.278687 736.210571,754.460754 
	C730.095032,755.230591 725.822205,758.558228 723.508911,764.263550 
	C721.105469,770.191467 722.737610,775.428833 726.967590,779.776367 
	C731.042847,783.964783 735.981445,785.721008 741.902954,783.741394 
	C748.326294,781.593933 751.776794,777.045898 751.998047,769.983032 
	C752.228882,762.615662 748.959167,757.997070 740.649536,754.721008 
z"/>
<path fill="#000000" opacity="1.000000" stroke="none" 
	d="
M425.648010,794.739441 
	C409.419006,806.106140 390.786774,805.019287 378.594879,792.173828 
	C369.938751,783.053589 367.494965,772.224670 370.893677,760.330933 
	C374.494354,747.730469 383.274231,739.830627 395.845612,736.932617 
	C417.013763,732.052856 435.645935,745.240906 437.996979,766.824768 
	C439.214417,778.001526 434.343109,787.195312 425.648010,794.739441 
M409.598358,755.667786 
	C408.802979,755.421875 408.018005,755.132996 407.210571,754.936829 
	C401.233215,753.484375 394.911713,755.930664 391.463348,761.011230 
	C388.042511,766.051270 388.228546,773.674622 391.886230,778.342041 
	C396.027985,783.627136 402.203094,785.613953 408.281097,783.725769 
	C414.660156,781.744019 417.702423,776.957764 418.508453,770.813232 
	C419.393250,764.068237 415.723419,759.449280 409.598358,755.667786 
z"/>
<path fill="#000000" opacity="1.000000" stroke="none" 
	d="
M523.059021,762.405029 
	C525.214966,774.965576 522.622253,785.612732 512.895996,793.850464 
	C506.250153,799.479126 498.207123,801.509094 489.798187,802.054138 
	C483.998779,802.430176 478.150085,802.283142 472.333130,802.084839 
	C466.349976,801.881104 463.924927,799.426086 463.879456,793.327515 
	C463.759125,777.186401 463.803680,761.043762 463.850555,744.901917 
	C463.864136,740.229980 466.201996,737.088318 470.978790,736.970581 
	C478.943848,736.774231 486.930328,736.342834 494.890686,737.343201 
	C509.836945,739.221558 518.820801,747.837524 523.059021,762.405029 
M499.098450,758.341248 
	C495.586945,755.186157 491.265778,754.989868 486.890533,755.015564 
	C484.488312,755.029724 483.185516,756.136353 483.206482,758.668030 
	C483.272736,766.663147 483.292419,774.658691 483.342346,782.653931 
	C483.353058,784.370789 483.940674,785.652832 485.960297,785.448669 
	C492.625580,784.774841 499.431183,784.369690 502.956421,777.199524 
	C505.954498,771.101562 504.819702,764.690552 499.098450,758.341248 
z"/>
<path fill="#000000" opacity="1.000000" stroke="none" 
	d="
M677.881653,787.191589 
	C679.463623,789.570801 680.891907,791.622375 682.175842,793.760620 
	C684.320312,797.332031 682.807068,799.863403 679.525696,801.488098 
	C674.443542,804.004456 666.231812,802.006714 662.838989,797.439453 
	C659.562561,793.028870 656.552979,788.419800 653.266235,784.017273 
	C652.118530,782.479919 651.203308,780.565613 649.103455,779.852844 
	C644.258179,783.174316 641.348999,787.334839 641.831238,793.564636 
	C642.078674,796.761230 641.443909,800.125610 637.836060,801.436707 
	C633.966187,802.843079 629.979187,802.978333 626.257874,800.843140 
	C623.718384,799.386169 623.635315,796.813538 623.636536,794.249390 
	C623.644470,777.929688 623.601990,761.609863 623.647522,745.290283 
	C623.664185,739.321289 626.263672,736.793396 632.151428,736.709961 
	C638.754578,736.616333 641.937500,739.140686 642.191833,745.116333 
	C642.408508,750.206909 642.236572,755.314026 642.236572,761.678772 
	C648.428162,754.573303 653.761230,748.492126 659.049683,742.372375 
	C663.722778,736.964600 670.755737,734.981445 677.549316,737.228577 
	C681.707336,738.603821 682.585693,741.296997 679.673645,744.751709 
	C674.951904,750.353455 670.162903,755.913940 665.116089,761.219604 
	C662.664673,763.796753 662.617310,765.891479 664.603088,768.606995 
	C669.025879,774.654907 673.317810,780.798401 677.881653,787.191589 
z"/>
<path fill="#000000" opacity="1.000000" stroke="none" 
	d="
M548.023926,780.022461 
	C548.201782,768.039795 548.488037,756.549255 548.495422,745.058533 
	C548.498596,740.101807 550.759583,737.336243 555.517761,737.222107 
	C566.671326,736.954407 577.839661,736.765503 588.988281,737.061401 
	C594.205017,737.199890 597.269836,741.280945 596.947388,746.093140 
	C596.610840,751.116821 593.408936,754.192139 588.120300,754.310852 
	C582.123657,754.445496 576.123230,754.433594 570.124451,754.434021 
	C567.816406,754.434143 566.298035,754.994568 566.318481,757.782837 
	C566.338867,760.562500 567.531860,761.698730 570.247131,761.668518 
	C575.078674,761.614624 579.913147,761.604980 584.743469,761.711792 
	C590.161194,761.831604 592.956848,764.293091 593.158264,768.901245 
	C593.376831,773.901184 589.865784,777.913391 584.765869,778.124146 
	C580.107727,778.316528 575.434814,778.123657 570.771179,778.226013 
	C569.079834,778.263123 566.657410,777.685242 566.666870,780.512878 
	C566.675415,783.087463 567.760620,784.951477 570.878540,784.900696 
	C576.542603,784.808289 582.214722,784.726074 587.873352,784.926147 
	C594.349609,785.155029 596.989197,787.303040 597.410828,792.142029 
	C597.933594,798.142395 595.509399,801.630920 589.427917,801.849243 
	C578.111633,802.255676 566.769897,802.196838 555.444946,801.989990 
	C551.328369,801.914917 548.930847,799.478333 548.488647,794.988892 
	C548.012634,790.156067 548.096802,785.340698 548.023926,780.022461 
z"/>
<path fill="#000000" opacity="1.000000" stroke="none" 
	d="
M243.127319,802.316040 
	C236.686279,801.503113 234.756088,799.585632 234.729218,793.652588 
	C234.656113,777.505615 234.679306,761.357727 234.777374,745.210876 
	C234.810104,739.822632 237.221848,737.161438 242.719635,737.027527 
	C253.200394,736.772278 263.694122,736.758728 274.176239,736.962952 
	C280.228241,737.080872 283.465942,740.551514 283.309906,745.885742 
	C283.154297,751.203918 279.757477,754.259644 273.772491,754.344482 
	C268.446350,754.419983 263.117645,754.339355 257.792633,754.450317 
	C255.944870,754.488892 253.424667,753.896362 253.648010,757.197510 
	C253.834351,759.951904 254.591904,761.987915 258.062103,761.863159 
	C262.214844,761.714050 266.395325,761.734924 270.537292,762.041016 
	C275.841797,762.433044 278.110779,764.790649 278.181061,769.374023 
	C278.270294,775.191895 276.115845,777.986572 270.704895,778.454590 
	C266.404480,778.826538 262.068176,778.876038 257.747284,778.888306 
	C254.641724,778.897156 253.130798,780.061584 253.314713,783.346130 
	C253.481934,786.332703 253.356934,789.337158 253.321259,792.333252 
	C253.230011,799.995728 251.255920,802.006531 243.127319,802.316040 
z"/>
<path fill="#000000" opacity="1.000000" stroke="none" 
	d="
M305.639221,784.987793 
	C305.643127,771.503601 305.610626,758.516418 305.666748,745.529724 
	C305.692993,739.449829 308.436249,736.825745 314.570709,736.747742 
	C320.978668,736.666260 324.221222,739.420959 324.275085,745.420288 
	C324.376709,756.741211 324.436066,768.066833 324.204010,779.384216 
	C324.118011,783.577759 325.604523,784.947205 329.698883,784.737976 
	C335.178772,784.458252 340.686920,784.575378 346.177856,784.717651 
	C350.838196,784.838440 353.708130,787.648926 354.070831,792.068420 
	C354.479645,797.049438 351.505585,801.711548 346.932251,801.848694 
	C335.290131,802.197754 323.628723,802.221313 311.983582,801.973633 
	C308.030396,801.889587 305.726074,799.142944 305.671173,794.975159 
	C305.629517,791.812195 305.647644,788.648376 305.639221,784.987793 
z"/>
</svg>